<mxfile host="app.diagrams.net" agent="Mozilla/5.0 (Windows NT 10.0; Win64; x64) AppleWebKit/537.36 (KHTML, like Gecko) Chrome/128.0.0.0 Safari/537.36" version="26.2.9">
  <diagram name="1 oldal" id="uwnkt5z_3npS-U7WCGYa">
    <mxGraphModel dx="1953" dy="704" grid="1" gridSize="10" guides="1" tooltips="1" connect="1" arrows="1" fold="1" page="1" pageScale="1" pageWidth="827" pageHeight="1169" math="0" shadow="0">
      <root>
        <mxCell id="0" />
        <mxCell id="1" parent="0" />
        <mxCell id="EsWgZdCUpDb6GRTIS0Wa-10" value="&lt;font style=&quot;font-size: 18px;&quot;&gt;Látogató&lt;/font&gt;" style="shape=umlActor;verticalLabelPosition=bottom;verticalAlign=top;html=1;outlineConnect=0;fillColor=#d5e8d4;strokeColor=#82b366;" vertex="1" parent="1">
          <mxGeometry x="-60" y="680" width="100" height="200" as="geometry" />
        </mxCell>
        <mxCell id="EsWgZdCUpDb6GRTIS0Wa-11" value="&lt;font style=&quot;font-size: 18px;&quot;&gt;Adminisztrátor&lt;/font&gt;" style="shape=umlActor;verticalLabelPosition=bottom;verticalAlign=top;html=1;outlineConnect=0;fillColor=#f8cecc;strokeColor=#b85450;" vertex="1" parent="1">
          <mxGeometry x="760" y="680" width="100" height="200" as="geometry" />
        </mxCell>
        <mxCell id="EsWgZdCUpDb6GRTIS0Wa-3" value="" style="rounded=0;whiteSpace=wrap;html=1;" vertex="1" parent="1">
          <mxGeometry x="213" y="250" width="360" height="1030" as="geometry" />
        </mxCell>
        <mxCell id="EsWgZdCUpDb6GRTIS0Wa-4" value="Orvosok kezelése" style="text;html=1;align=center;verticalAlign=middle;whiteSpace=wrap;rounded=0;fontSize=18;" vertex="1" parent="1">
          <mxGeometry x="310.5" y="260" width="165" height="30" as="geometry" />
        </mxCell>
        <mxCell id="EsWgZdCUpDb6GRTIS0Wa-5" value="UC_O_List&amp;nbsp;&lt;br&gt;Orvosok listázása" style="ellipse;whiteSpace=wrap;html=1;fillColor=#fff2cc;strokeColor=#d6b656;" vertex="1" parent="1">
          <mxGeometry x="305.5" y="330" width="170" height="100" as="geometry" />
        </mxCell>
        <mxCell id="EsWgZdCUpDb6GRTIS0Wa-6" value="UC_O_Create&lt;br&gt;Orvos létrehozása" style="ellipse;whiteSpace=wrap;html=1;fillColor=#fff2cc;strokeColor=#d6b656;" vertex="1" parent="1">
          <mxGeometry x="308" y="585" width="170" height="100" as="geometry" />
        </mxCell>
        <mxCell id="EsWgZdCUpDb6GRTIS0Wa-7" value="UC_O_Read&lt;br&gt;Orvos megtekintése" style="ellipse;whiteSpace=wrap;html=1;fillColor=#fff2cc;strokeColor=#d6b656;" vertex="1" parent="1">
          <mxGeometry x="308" y="470" width="170" height="100" as="geometry" />
        </mxCell>
        <mxCell id="EsWgZdCUpDb6GRTIS0Wa-8" value="UC_O_Update&lt;br&gt;Orvos módosítása" style="ellipse;whiteSpace=wrap;html=1;fillColor=#fff2cc;strokeColor=#d6b656;" vertex="1" parent="1">
          <mxGeometry x="305.5" y="720" width="170" height="100" as="geometry" />
        </mxCell>
        <mxCell id="EsWgZdCUpDb6GRTIS0Wa-9" value="UC_O_Delete&lt;br&gt;Orvos törlése" style="ellipse;whiteSpace=wrap;html=1;fillColor=#fff2cc;strokeColor=#d6b656;" vertex="1" parent="1">
          <mxGeometry x="310.5" y="860" width="170" height="100" as="geometry" />
        </mxCell>
        <mxCell id="EsWgZdCUpDb6GRTIS0Wa-19" value="UC_O_Filter_By_Korhaz&lt;br&gt;Orvosok szűrése kórház&lt;br&gt;szerint" style="ellipse;whiteSpace=wrap;html=1;fillColor=#fff2cc;strokeColor=#d6b656;" vertex="1" parent="1">
          <mxGeometry x="310.5" y="1000" width="170" height="100" as="geometry" />
        </mxCell>
        <mxCell id="EsWgZdCUpDb6GRTIS0Wa-20" value="UC_O_Filter_By_Korhaz_Szakterület&lt;br&gt;Orvosok szűrése kórház és szakterület&lt;br&gt;szerint" style="ellipse;whiteSpace=wrap;html=1;fillColor=#fff2cc;strokeColor=#d6b656;" vertex="1" parent="1">
          <mxGeometry x="284.5" y="1140" width="222" height="100" as="geometry" />
        </mxCell>
        <mxCell id="EsWgZdCUpDb6GRTIS0Wa-21" value="" style="endArrow=none;html=1;rounded=0;exitX=1;exitY=0.3333333333333333;exitDx=0;exitDy=0;exitPerimeter=0;entryX=0;entryY=0.5;entryDx=0;entryDy=0;" edge="1" parent="1" source="EsWgZdCUpDb6GRTIS0Wa-10" target="EsWgZdCUpDb6GRTIS0Wa-5">
          <mxGeometry width="50" height="50" relative="1" as="geometry">
            <mxPoint x="50" y="710" as="sourcePoint" />
            <mxPoint x="100" y="660" as="targetPoint" />
          </mxGeometry>
        </mxCell>
        <mxCell id="EsWgZdCUpDb6GRTIS0Wa-22" value="" style="endArrow=none;html=1;rounded=0;exitX=1;exitY=0.3333333333333333;exitDx=0;exitDy=0;exitPerimeter=0;entryX=0;entryY=0.5;entryDx=0;entryDy=0;" edge="1" parent="1" source="EsWgZdCUpDb6GRTIS0Wa-10" target="EsWgZdCUpDb6GRTIS0Wa-7">
          <mxGeometry width="50" height="50" relative="1" as="geometry">
            <mxPoint x="80" y="797" as="sourcePoint" />
            <mxPoint x="140" y="710" as="targetPoint" />
          </mxGeometry>
        </mxCell>
        <mxCell id="EsWgZdCUpDb6GRTIS0Wa-23" value="" style="endArrow=none;html=1;rounded=0;exitX=1;exitY=0.3333333333333333;exitDx=0;exitDy=0;exitPerimeter=0;entryX=0;entryY=0.5;entryDx=0;entryDy=0;" edge="1" parent="1" source="EsWgZdCUpDb6GRTIS0Wa-10" target="EsWgZdCUpDb6GRTIS0Wa-19">
          <mxGeometry width="50" height="50" relative="1" as="geometry">
            <mxPoint x="100" y="837" as="sourcePoint" />
            <mxPoint x="160" y="750" as="targetPoint" />
          </mxGeometry>
        </mxCell>
        <mxCell id="EsWgZdCUpDb6GRTIS0Wa-24" value="" style="endArrow=none;html=1;rounded=0;exitX=1;exitY=0.3333333333333333;exitDx=0;exitDy=0;exitPerimeter=0;entryX=0;entryY=0.5;entryDx=0;entryDy=0;" edge="1" parent="1" source="EsWgZdCUpDb6GRTIS0Wa-10" target="EsWgZdCUpDb6GRTIS0Wa-20">
          <mxGeometry width="50" height="50" relative="1" as="geometry">
            <mxPoint x="120" y="860" as="sourcePoint" />
            <mxPoint x="180" y="773" as="targetPoint" />
          </mxGeometry>
        </mxCell>
        <mxCell id="EsWgZdCUpDb6GRTIS0Wa-25" value="" style="endArrow=none;html=1;rounded=0;entryX=0;entryY=0.3333333333333333;entryDx=0;entryDy=0;entryPerimeter=0;exitX=1;exitY=0.5;exitDx=0;exitDy=0;" edge="1" parent="1" source="EsWgZdCUpDb6GRTIS0Wa-5" target="EsWgZdCUpDb6GRTIS0Wa-11">
          <mxGeometry width="50" height="50" relative="1" as="geometry">
            <mxPoint x="660" y="697" as="sourcePoint" />
            <mxPoint x="720" y="610" as="targetPoint" />
          </mxGeometry>
        </mxCell>
        <mxCell id="EsWgZdCUpDb6GRTIS0Wa-26" value="" style="endArrow=none;html=1;rounded=0;entryX=0;entryY=0.3333333333333333;entryDx=0;entryDy=0;entryPerimeter=0;exitX=1;exitY=0.5;exitDx=0;exitDy=0;" edge="1" parent="1" source="EsWgZdCUpDb6GRTIS0Wa-7" target="EsWgZdCUpDb6GRTIS0Wa-11">
          <mxGeometry width="50" height="50" relative="1" as="geometry">
            <mxPoint x="450" y="453" as="sourcePoint" />
            <mxPoint x="734" y="820" as="targetPoint" />
          </mxGeometry>
        </mxCell>
        <mxCell id="EsWgZdCUpDb6GRTIS0Wa-27" value="" style="endArrow=none;html=1;rounded=0;entryX=0;entryY=0.3333333333333333;entryDx=0;entryDy=0;entryPerimeter=0;exitX=1;exitY=0.5;exitDx=0;exitDy=0;" edge="1" parent="1" source="EsWgZdCUpDb6GRTIS0Wa-6" target="EsWgZdCUpDb6GRTIS0Wa-11">
          <mxGeometry width="50" height="50" relative="1" as="geometry">
            <mxPoint x="475.5" y="600" as="sourcePoint" />
            <mxPoint x="757.5" y="827" as="targetPoint" />
          </mxGeometry>
        </mxCell>
        <mxCell id="EsWgZdCUpDb6GRTIS0Wa-28" value="" style="endArrow=none;html=1;rounded=0;entryX=0;entryY=0.3333333333333333;entryDx=0;entryDy=0;entryPerimeter=0;exitX=1;exitY=0.5;exitDx=0;exitDy=0;" edge="1" parent="1" source="EsWgZdCUpDb6GRTIS0Wa-8" target="EsWgZdCUpDb6GRTIS0Wa-11">
          <mxGeometry width="50" height="50" relative="1" as="geometry">
            <mxPoint x="480.5" y="724" as="sourcePoint" />
            <mxPoint x="762.5" y="836" as="targetPoint" />
          </mxGeometry>
        </mxCell>
        <mxCell id="EsWgZdCUpDb6GRTIS0Wa-29" value="" style="endArrow=none;html=1;rounded=0;entryX=0;entryY=0.3333333333333333;entryDx=0;entryDy=0;entryPerimeter=0;exitX=1;exitY=0.5;exitDx=0;exitDy=0;" edge="1" parent="1" source="EsWgZdCUpDb6GRTIS0Wa-9" target="EsWgZdCUpDb6GRTIS0Wa-11">
          <mxGeometry width="50" height="50" relative="1" as="geometry">
            <mxPoint x="478" y="843" as="sourcePoint" />
            <mxPoint x="762" y="820" as="targetPoint" />
          </mxGeometry>
        </mxCell>
        <mxCell id="EsWgZdCUpDb6GRTIS0Wa-30" value="" style="endArrow=none;html=1;rounded=0;entryX=0;entryY=0.3333333333333333;entryDx=0;entryDy=0;entryPerimeter=0;exitX=1;exitY=0.5;exitDx=0;exitDy=0;" edge="1" parent="1" source="EsWgZdCUpDb6GRTIS0Wa-19" target="EsWgZdCUpDb6GRTIS0Wa-11">
          <mxGeometry width="50" height="50" relative="1" as="geometry">
            <mxPoint x="500" y="991.5" as="sourcePoint" />
            <mxPoint x="779" y="828.5" as="targetPoint" />
          </mxGeometry>
        </mxCell>
        <mxCell id="EsWgZdCUpDb6GRTIS0Wa-31" value="" style="endArrow=none;html=1;rounded=0;entryX=0;entryY=0.3333333333333333;entryDx=0;entryDy=0;entryPerimeter=0;exitX=1;exitY=0.5;exitDx=0;exitDy=0;" edge="1" parent="1" source="EsWgZdCUpDb6GRTIS0Wa-20" target="EsWgZdCUpDb6GRTIS0Wa-11">
          <mxGeometry width="50" height="50" relative="1" as="geometry">
            <mxPoint x="500" y="1093" as="sourcePoint" />
            <mxPoint x="770" y="790" as="targetPoint" />
          </mxGeometry>
        </mxCell>
      </root>
    </mxGraphModel>
  </diagram>
</mxfile>
